<?xml version="1.0" encoding="UTF-8"?>
<svg id="Layer_2" data-name="Layer 2" xmlns="http://www.w3.org/2000/svg" xmlns:xlink="http://www.w3.org/1999/xlink" viewBox="0 0 143 73.94">
  <defs>
    <style>
      .cls-1 {
        font-size: 6.64px;
      }

      .cls-2 {
        fill: none;
      }

      .cls-2, .cls-3, .cls-4, .cls-5, .cls-6, .cls-7, .cls-8 {
        stroke-width: 0px;
      }

      .cls-9 {
        font-size: 2.95px;
      }

      .cls-3 {
        fill: #fff;
      }

      .cls-10 {
        font-size: 4.92px;
      }

      .cls-11 {
        font-family: KonkhmerSleokchher-Regular, 'Konkhmer Sleokchher';
      }

      .cls-11, .cls-4 {
        fill: #282661;
      }

      .cls-12 {
        clip-path: url(#clippath);
      }

      .cls-5 {
        fill: #f6b817;
      }

      .cls-6 {
        fill: #1ab2e7;
      }

      .cls-7 {
        fill: #e30a7d;
      }

      .cls-8 {
        fill: #c2c930;
      }
    </style>
    <clipPath id="clippath">
      <path class="cls-2" d="m36.21,5.41c0-2.46-1.89-4.46-4.22-4.46H4.22C1.89.95,0,2.94,0,5.41v29.4c0,2.46,1.89,4.46,4.22,4.46h27.78c2.33,0,4.22-2,4.22-4.46V5.41Z"/>
    </clipPath>
  </defs>
  <g id="Layer_1-2" data-name="Layer 1">
    <g>
      <g>
        <g>
          <polygon class="cls-4" points="2 44.47 4.61 44.47 10.46 53.42 10.46 44.47 13.03 44.47 13.03 58.08 10.42 58.08 4.57 49.13 4.57 58.08 2 58.08 2 44.47"/>
          <polygon class="cls-4" points="37.95 44.37 40.88 44.37 44.54 54.58 48.21 44.37 51.08 44.37 45.87 58.27 43.16 58.27 37.95 44.37"/>
          <path class="cls-4" d="m18.68,51.12c0-4.04,2.93-7.1,6.84-7.1s6.84,3.06,6.84,7.1-2.95,7.1-6.84,7.1-6.84-3.06-6.84-7.1m11.02,0c0-2.55-1.8-4.46-4.17-4.46s-4.19,1.91-4.19,4.46,1.8,4.46,4.19,4.46,4.17-1.91,4.17-4.46"/>
          <path class="cls-4" d="m61.56,44.17h3.11l5.06,13.95h-2.88l-.94-2.71h-5.67l-.92,2.71h-2.85l5.08-13.95Zm3.46,8.67l-1.93-5.6-1.95,5.6h3.88Z"/>
          <path class="cls-4" d="m80.55,44.64h5.75c2.49,0,4.38,1.92,4.38,4.48,0,1.96-1.16,3.53-2.87,4.08l3.24,5.12h-3.2l-2.96-4.88h-1.76v4.88h-2.59v-13.68Zm2.59,2.58v3.85h3.11c1.01,0,1.78-.83,1.78-1.92s-.77-1.92-1.78-1.92h-3.11Z"/>
          <path class="cls-4" d="m101.51,44.36h3.21l5.22,14.38h-2.97l-.97-2.79h-5.85l-.95,2.79h-2.94l5.24-14.38Zm3.57,8.94l-1.99-5.77-2.01,5.77h4Z"/>
          <path class="cls-4" d="m114.66,51.59c0-4.29,3.12-7.55,7.27-7.55,3.5,0,6.29,2.37,6.93,5.69h-2.92c-.56-1.71-2.14-2.87-4.02-2.87-2.54,0-4.45,2.03-4.45,4.74s1.92,4.74,4.45,4.74c1.88,0,3.46-1.16,4.02-2.88h2.92c-.64,3.32-3.44,5.69-6.93,5.69-4.16,0-7.27-3.26-7.27-7.55"/>
          <polygon class="cls-4" points="134.32 44.65 142.91 44.65 142.91 47.25 136.93 47.25 136.93 50.21 142.28 50.21 142.28 52.81 136.93 52.81 136.93 55.86 143 55.86 143 58.46 134.32 58.46 134.32 44.65"/>
        </g>
        <g class="cls-12">
          <polygon class="cls-8" points="36.21 28.04 10.61 .95 36.21 -26.15 61.82 .95 36.21 28.04"/>
          <polygon class="cls-8" points="0 66.37 -25.61 39.27 0 12.17 25.61 39.27 0 66.37"/>
        </g>
        <path class="cls-7" d="m60.02,40.01h0c-10.44,0-18.9-8.96-18.9-20S49.58,0,60.02,0s18.9,8.96,18.9,20-8.46,20-18.9,20"/>
        <path class="cls-6" d="m139.64,39.39h-26.77c-2.41,0-4.02-2.63-3.04-4.96l13.38-31.82c1.17-2.79,4.91-2.79,6.08,0l13.38,31.82c.98,2.33-.63,4.96-3.04,4.96"/>
        <g>
          <path class="cls-3" d="m60.97,14.58c-.87,0-1.57.74-1.57,1.66s.7,1.66,1.57,1.66,1.57-.74,1.57-1.66-.7-1.66-1.57-1.66Zm0,2.12c-.24,0-.44-.21-.44-.46s.19-.46.44-.46.44.21.44.46-.19.46-.44.46Z"/>
          <path class="cls-3" d="m53.47,21.33c.72-.78.7-1.78.7-1.97,0-.08-.16-1.35-.93-1.97-.48-.39-1-.48-1.41-.5-.25,0-.45-.23-.45-.49v-.24c0-.27.21-.49.46-.49h4.69l-2.04-3.71c-.27-.49-.05-1.13.5-1.3.3-.09.62.06.77.34l2.43,4.42c.17.31.2.69.06,1.04-.18.43-.6.69-1.04.69h-2.11c.14.22.33.55.46.98.03.09.54,1.77-.23,3.2-.68,1.25-2.17,1.97-3.76,1.79-.24-.03-.42-.25-.42-.5h0c0-.29.22-.51.48-.51.49,0,1.24-.13,1.84-.78Z"/>
          <path class="cls-3" d="m50.27,23.54c-.47,0-.86.4-.87.9,0,.32.02.68.12,1.07.37,1.44,1.6,2.77,3.25,2.95,1.35.14,2.69-.52,3.48-1.72.18.31.84,1.35,2.09,1.72,1.38.41,2.93-.17,3.95-1.47.1.15,1.18,1.73,3.02,1.72,1.73-.01,3.12-1.43,3.48-2.95.09-.37.11-.71.09-1.02-.02-.35-.25-.65-.58-.7-.36-.05-.67.21-.74.58-.25,1.35-1.26,2.31-2.26,2.37-1.26.07-2.62-1.28-2.58-3.08,0-.19-.14-.36-.32-.36h0c-.18,0-.33.16-.32.35.01,1.68-1.23,3.03-2.58,3.09-1.42.06-2.81-1.32-2.81-3.09,0-.19-.14-.35-.33-.35h0c-.18,0-.33.16-.33.36.02,1.8-1.34,3.14-2.58,3.09-1.07-.05-2.16-1.14-2.33-2.62-.05-.47-.42-.82-.86-.82h0Z"/>
        </g>
        <g>
          <path class="cls-3" d="m127.56,22.06l1.33.93s.03.08,0,.11l-1.29,1.13s-.06.02-.09,0l-1.99-1.64s-.04-.07-.01-.1l.83-1.1s.05-.1.05-.15v-.33s-.03-.07-.07-.07h-3.18l1.83,1.7.02.06v6.58s0,.03-.01.04c-.06.08-.25.31-.57.35-.43.06-.72-.26-.79-.35l-.02-.05v-.71s0-4.95,0-4.95c0-.03-.01-.05-.03-.06-1.15-.79-2.3-1.57-3.45-2.36-.02-.01-.54-.28-.58-.86,0,0,0,0,0-.01-.02-.4.29-.73.67-.73l8.42-.12c.06,0,.12,0,.17.04.24.14.39.41.39.7,0,.25-.23.49-.46.74-.39.41-.77.82-1.16,1.23Z"/>
          <path class="cls-3" d="m131.12,15.81c-.87,0-1.57.74-1.57,1.66s.7,1.66,1.57,1.66,1.57-.74,1.57-1.66-.7-1.66-1.57-1.66Zm0,2.12c-.24,0-.44-.21-.44-.46s.19-.46.44-.46.44.21.44.46-.19.46-.44.46Z"/>
          <path class="cls-3" d="m129.88,22.92c-2.37,0-4.3,2.04-4.3,4.55s1.92,4.55,4.3,4.55,4.3-2.04,4.3-4.55-1.92-4.55-4.3-4.55Zm0,7.13c-1.35,0-2.44-1.16-2.44-2.58s1.09-2.58,2.44-2.58,2.44,1.16,2.44,2.58-1.09,2.58-2.44,2.58Z"/>
          <path class="cls-3" d="m119.08,22.8c-2.37,0-4.3,2.04-4.3,4.55s1.92,4.55,4.3,4.55,4.3-2.04,4.3-4.55-1.92-4.55-4.3-4.55Zm0,7.13c-1.35,0-2.44-1.16-2.44-2.58s1.09-2.58,2.44-2.58,2.44,1.16,2.44,2.58-1.09,2.58-2.44,2.58Z"/>
        </g>
        <path class="cls-5" d="m84.82.56c-2.41,0-4.02,2.63-3.04,4.96l8.46,20.12,4.92,11.7c1.17,2.79,4.91,2.79,6.08,0l13.38-31.82c.98-2.33-.63-4.96-3.04-4.96h-26.77Z"/>
        <ellipse class="cls-2" cx="100.46" cy="15.75" rx=".44" ry=".46"/>
        <path class="cls-3" d="m100.46,17.41c.87,0,1.57-.74,1.57-1.66s-.7-1.66-1.57-1.66-1.57.74-1.57,1.66.7,1.66,1.57,1.66Zm0-2.12c.24,0,.44.21.44.46s-.19.46-.44.46-.44-.21-.44-.46.19-.46.44-.46Z"/>
        <path class="cls-3" d="m97.13,20.59s0,0,0,0c.21-.31.65-.27.85.04.31.47,1.04,1.39,2.16,1.45,1.53.07,2.85-1.51,2.79-2.7-.02-.48-.28-1.19-.7-1.23-.12-.01-.24.04-.34.11-.21.15-.34.39-.38.65-.13.8-.71,1.39-1.37,1.46-.52.05-1.05-.24-1.39-.73,0,0,0-.02,0-.03.05-.38.09-1.13-.23-1.95-.12-.3-.62-1.58-1.86-1.97-1.29-.4-2.71.38-3.25,1.47-.36.74-.47,1.9,0,2.21.1.07.3.14.66.01.02,0,.04-.03.04-.05.3-1.26,1.06-2.13,1.85-2.18.09,0,.77-.05,1.16.49h0c.29.41.23.98-.13,1.3-2.28,2.06-4.55,4.28-6.77,6.7l.65,1.56s.02.02.03.03c1.49-1.44,2.98-2.89,4.46-4.33.24-.24.59-.32.91-.23,1.56.44,2.55,1.8,2.47,3.08-.06,1.01-.76,1.71-1.15,2.03-.15.13-.24.32-.24.52v.04c0,.29.19.54.46.6h0c.82.19,1.72-.8,2.09-1.47,1.04-1.86.2-5.03-1.63-5.9-.29-.14-.58-.2-.81-.23-.34-.04-.54-.45-.35-.75,0,0,0,0,0,0Z"/>
      </g>
      <text class="cls-11" transform="translate(32.96 69.07) scale(.94 1)"><tspan class="cls-9" x="0" y="0">REGISTRATIONS</tspan><tspan class="cls-10" x="24.06" y="0" xml:space="preserve">      |      </tspan><tspan class="cls-9" x="39.58" y="0" xml:space="preserve">TIMING         </tspan><tspan class="cls-10" x="56.47" y="0">|</tspan><tspan class="cls-9" x="58.31" y="0" xml:space="preserve">          RESULTS</tspan><tspan class="cls-1" x="78.56" y="0"> </tspan></text>
    </g>
  </g>
</svg>